<svg width="236" height="187" viewBox="0 0 236 187" fill="none" xmlns="http://www.w3.org/2000/svg">
<g filter="url(#filter0_d_1_64)">
<path d="M116.054 109.753L124.041 81.0682C124.547 79.2554 124.822 77.4425 124.899 75.6552H51.5464C51.6383 75.6909 51.7302 75.7113 51.8324 75.7113H98.7833C99.3348 75.7113 99.7332 76.2373 99.5851 76.7684L92.3336 102.818C89.5147 112.929 92.7983 121.952 98.9518 127.943L115.63 112.485C115.63 112.485 114.936 113.879 116.054 109.753Z" fill="#E0E0E0"/>
<path d="M177.901 54.9628C177.585 54.6258 177.059 54.6105 176.722 54.9271L117.714 110.401C117.622 110.483 117.31 110.764 117.208 110.805L98.9517 127.943C108.031 136.782 123.377 139.019 134.658 128.407L176.865 88.713C186.47 79.6792 186.935 64.5685 177.901 54.9628Z" fill="white"/>
<path d="M101.204 51H74.8789C61.6883 51 51 61.6934 51 74.8789C51 75.2364 51.2298 75.5377 51.5464 75.6551H124.899C125.456 62.582 115.007 51 101.204 51Z" fill="#FAFAFA"/>
</g>
<defs>
<filter id="filter0_d_1_64" x="0" y="0" width="235.384" height="186.504" filterUnits="userSpaceOnUse" color-interpolation-filters="sRGB">
<feFlood flood-opacity="0" result="BackgroundImageFix"/>
<feColorMatrix in="SourceAlpha" type="matrix" values="0 0 0 0 0 0 0 0 0 0 0 0 0 0 0 0 0 0 127 0" result="hardAlpha"/>
<feOffset/>
<feGaussianBlur stdDeviation="25.5"/>
<feComposite in2="hardAlpha" operator="out"/>
<feColorMatrix type="matrix" values="0 0 0 0 0.604 0 0 0 0 0.1 0 0 0 0 1 0 0 0 0.49 0"/>
<feBlend mode="normal" in2="BackgroundImageFix" result="effect1_dropShadow_1_64"/>
<feBlend mode="normal" in="SourceGraphic" in2="effect1_dropShadow_1_64" result="shape"/>
</filter>
</defs>
</svg>
